# xmcd CD database file
#
# Track frame offsets:
#	183
#	31820
#	83345
#	131290
#	170953
#	193388
#	211463
#	231455
#	259898
#
# Disc length: 3989 seconds
#
# Revision: 3
# Processed by: cddbd v1.5.1PL0 Copyright (c) Steve Scherf et al.
# Submitted via: CDex 1.51
#
DISCID=7e0f9309
DTITLE=Jimi Hendrix - Live USA (imtrat 2cd) Disc 2
DYEAR=1991
DGENRE=Progressive Rock
TTITLE0=Wild Thing (15) Worc.68
TTITLE1=Spanish Castle Magic (31) LA 69
TTITLE2=Red House (50) LA 69
TTITLE3=Tax Free (9) SF 68 compl. (Foxy Lady instr.)
TTITLE4=Foxy Lady (64) LA69
TTITLE5=Hey Joe (53) Atl.70
TTITLE6=Hound Dog (3) RAH 69 soundcheck
TTITLE7=Everything's Gonna Be All Right (4) NY 68 Cafe A Go Go (Beginning of a Jam)
TTITLE8=JL 2  NY 68 Cafe AGG (Funky Jam)
EXTD=YEAR: 1991
EXTT0=
EXTT1=
EXTT2=
EXTT3=
EXTT4=
EXTT5=
EXTT6=
EXTT7=
EXTT8=
PLAYORDER=
